<svg xmlns="http://www.w3.org/2000/svg" fill="none" viewBox="0 0 100 100"><g clip-path="url(#a)"><path fill="#2A3275" d="M13.725 32.587a9.57 9.57 0 0 1-9.558-9.558 9.57 9.57 0 0 1 9.558-9.562 9.57 9.57 0 0 1 9.567 9.562 9.575 9.575 0 0 1-9.567 9.558m0-15.366a5.817 5.817 0 0 0 0 11.625 5.817 5.817 0 0 0 0-11.625m0 42.333a9.57 9.57 0 0 1-9.558-9.562 9.57 9.57 0 0 1 9.558-9.559 9.57 9.57 0 0 1 9.563 9.559 9.57 9.57 0 0 1-9.563 9.562m0-15.367a5.812 5.812 0 1 0 .44 11.617 5.812 5.812 0 0 0-.44-11.617m0 42.317a9.57 9.57 0 0 1-9.558-9.558 9.57 9.57 0 0 1 9.558-9.563 9.57 9.57 0 0 1 9.563 9.563 9.57 9.57 0 0 1-9.563 9.558m0-15.367a5.817 5.817 0 0 0 0 11.625 5.816 5.816 0 0 0 0-11.625m72.684-38.55a9.57 9.57 0 0 1-9.563-9.558 9.57 9.57 0 0 1 9.558-9.562 9.57 9.57 0 0 1 9.563 9.562 9.57 9.57 0 0 1-9.558 9.558m0-15.366a5.817 5.817 0 1 0-.008 11.634 5.817 5.817 0 0 0 .008-11.634m0 42.333a9.57 9.57 0 0 1-9.563-9.562 9.57 9.57 0 0 1 9.558-9.559 9.57 9.57 0 0 1 9.563 9.559 9.57 9.57 0 0 1-9.558 9.562m0-15.367c-3.205 0-5.813 2.605-5.813 5.805a5.817 5.817 0 0 0 11.625 0 5.81 5.81 0 0 0-5.812-5.805m0 42.317a9.57 9.57 0 0 1-9.563-9.558 9.57 9.57 0 0 1 9.558-9.563 9.57 9.57 0 0 1 9.563 9.563 9.57 9.57 0 0 1-9.558 9.558m0-15.367A5.817 5.817 0 1 0 86.4 82.77a5.817 5.817 0 0 0 .009-11.633M50.067 46.071a9.57 9.57 0 0 1-9.558-9.559 9.57 9.57 0 0 1 9.558-9.562 9.57 9.57 0 0 1 9.563 9.562 9.57 9.57 0 0 1-9.563 9.559m0-15.367a5.817 5.817 0 1 0-.008 11.633 5.817 5.817 0 0 0 .008-11.633m.004-11.583a9.57 9.57 0 0 1-9.562-9.563A9.57 9.57 0 0 1 50.07 0a9.57 9.57 0 0 1 9.559 9.558 9.57 9.57 0 0 1-9.559 9.563m0-15.367a5.817 5.817 0 1 0-.008 11.634 5.817 5.817 0 0 0 .008-11.634m0 69.283a9.57 9.57 0 0 1-9.562-9.562 9.57 9.57 0 0 1 9.562-9.559 9.57 9.57 0 0 1 9.559 9.559 9.57 9.57 0 0 1-9.559 9.562m0-15.366a5.817 5.817 0 1 0-.008 11.634 5.817 5.817 0 0 0 .008-11.634M50.067 100a9.57 9.57 0 0 1-9.558-9.563 9.57 9.57 0 0 1 9.558-9.558 9.57 9.57 0 0 1 9.563 9.558A9.57 9.57 0 0 1 50.067 100m0-15.367a5.817 5.817 0 1 0-.008 11.634 5.817 5.817 0 0 0 .008-11.634"/><path fill="#5699DB" d="M34.846 34.257a3.1 3.1 0 0 1-1.154-.22l-6.225-2.484a3.127 3.127 0 0 1-1.147-5.135 3.12 3.12 0 0 1 3.468-.665l6.221 2.48a3.125 3.125 0 0 1-1.158 6.024zm0 26.434c-.395 0-.787-.075-1.154-.221l-6.225-2.48a3.125 3.125 0 0 1 2.321-5.804l6.221 2.484a3.125 3.125 0 0 1-1.158 6.02zm36.505-13.205a3.1 3.1 0 0 1-1.155-.225l-6.22-2.479a3.126 3.126 0 1 1 2.312-5.8l6.22 2.48a3.125 3.125 0 0 1-1.157 6.024m0-26.445a3.1 3.1 0 0 1-1.155-.226l-6.22-2.483a3.125 3.125 0 0 1 2.312-5.8l6.22 2.483a3.125 3.125 0 0 1-1.157 6.021zm0 52.87a3.1 3.1 0 0 1-1.155-.22l-6.225-2.484a3.123 3.123 0 0 1-1.168-5.146 3.13 3.13 0 0 1 3.485-.654l6.22 2.484a3.125 3.125 0 0 1-1.157 6.02m-42.559.946a3.125 3.125 0 0 1-1.162-6.02l6.225-2.48a3.123 3.123 0 1 1 2.316 5.8l-6.22 2.48a3.1 3.1 0 0 1-1.159.22m0-26.275a3.125 3.125 0 0 1-1.162-6.025l6.225-2.479a3.125 3.125 0 0 1 2.316 5.8l-6.22 2.48a3.1 3.1 0 0 1-1.155.22zm0-27.612a3.125 3.125 0 0 1-1.162-6.025l6.225-2.48a3.125 3.125 0 0 1 2.316 5.8l-6.22 2.484a3.1 3.1 0 0 1-1.159.22m6.054 68.046c-.395 0-.787-.075-1.154-.221l-6.225-2.484a3.125 3.125 0 0 1 2.313-5.8l6.225 2.48a3.125 3.125 0 0 1-1.159 6.025m30.28-54.755a3.125 3.125 0 0 1-1.159-6.029l6.225-2.479a3.124 3.124 0 0 1 2.317 5.804l-6.225 2.48a3.1 3.1 0 0 1-1.15.224zm0 26.434a3.125 3.125 0 0 1-1.159-6.025l6.225-2.484a3.127 3.127 0 1 1 2.317 5.809l-6.225 2.479a3.1 3.1 0 0 1-1.15.22zm0 28.316a3.12 3.12 0 0 1-1.159-6.02l6.225-2.48a3.125 3.125 0 1 1 2.313 5.8l-6.225 2.48a3.1 3.1 0 0 1-1.154.22"/></g><defs><clipPath id="a"><path fill="#fff" d="M0 0h100v100H0z"/></clipPath></defs></svg>